name C:\Users\Nicos\Desktop\Gil_twoSteps\Study2\ExperimentalData\IK_Splined\twoSteps_IK_BSplines_140_meshInts_study2_p02_s_01_lowIK_modROI.mot
datacolumns 38
datarows 5
range 0.65500000 0.65811429
endheader
                time	         pelvis_tilt	         pelvis_list	     pelvis_rotation	           pelvis_tx	           pelvis_ty	           pelvis_tz	       hip_flexion_r	     hip_adduction_r	      hip_rotation_r	        knee_angle_r	       ankle_angle_r	    subtalar_angle_r	         mtp_angle_r	       hip_flexion_l	     hip_adduction_l	      hip_rotation_l	        knee_angle_l	       ankle_angle_l	    subtalar_angle_l	         mtp_angle_l	    lumbar_extension	      lumbar_bending	     lumbar_rotation	          arm_flex_r	           arm_add_r	           arm_rot_r	        elbow_flex_r	           pro_sup_r	        wrist_flex_r	         wrist_dev_r	          arm_flex_l	           arm_add_l	           arm_rot_l	        elbow_flex_l	           pro_sup_l	        wrist_flex_l	         wrist_dev_l	
          0.65500000	        -17.54892460	          3.75464852	          9.30884858	          0.30817740	          0.89318354	          0.34005559	         30.45913475	         -9.40745005	        -15.86728475	       -111.21606066	        -14.95293616	        -31.61839541	         -8.98036970	         30.89072676	          6.10612480	         -0.16342203	        -50.40984611	         22.02833866	         -8.94633793	          6.04650277	        -27.94414159	         -9.08285878	         -2.17286111	        -29.64974768	        -10.39475688	        -15.96362191	         49.28572555	         77.10696305	        -27.11665796	         30.36569569	         -2.34204407	        -11.78645571	         -7.94625895	         69.05936351	         69.47141889	          4.67505380	         19.78657530	
          0.65548287	        -17.57002959	          3.71052179	          9.44165818	          0.31067058	          0.89304882	          0.33989324	         30.78596498	         -9.44700442	        -15.92717216	       -111.46868437	        -14.76228409	        -31.60126988	         -8.94919227	         30.71505741	          6.09951924	         -0.06779472	        -50.34640583	         22.06285519	         -8.94056392	          6.11798425	        -27.91386205	         -8.94590890	         -2.19025987	        -29.92933028	        -10.33131817	        -16.04483120	         48.96123928	         77.12322056	        -27.09758342	         30.44812533	         -1.97901936	        -11.70196230	         -7.81276014	         69.29428553	         69.41710677	          4.67814278	         19.76481232	
          0.65700856	        -17.63236461	          3.56650991	          9.87552899	          0.31852783	          0.89263152	          0.33937875	         31.82027038	         -9.58342647	        -16.12081659	       -112.23970548	        -14.16550218	        -31.54585487	         -8.84638688	         30.16317001	          6.06640266	          0.24485375	        -50.14587012	         22.14081446	         -8.90792128	          6.35923649	        -27.81961512	         -8.49817890	         -2.26392725	        -30.84019152	        -10.10599828	        -16.37132432	         48.06726102	         77.14160762	        -27.03110328	         30.69311889	         -0.84608166	        -11.42994710	         -7.39136268	         70.08109461	         69.20997007	          4.68487352	         19.70363721	
          0.65811429	        -17.67463604	          3.45907126	         10.19949473	          0.32420882	          0.89233468	          0.33900486	         32.57098403	         -9.68994645	        -16.26411609	       -112.78034544	        -13.73673021	        -31.50482086	         -8.76900753	         29.76530140	          6.03421865	          0.47846402	        -50.00047253	         22.17653381	         -8.87464175	          6.54437355	        -27.75226172	         -8.16364919	         -2.32980945	        -31.51870609	         -9.92607362	        -16.65466116	         47.50707075	         77.13289529	        -26.97877085	         30.86035224	         -0.03439434	        -11.22943057	         -7.08622719	         70.68110106	         69.03610487	          4.68772743	         19.66437075	
          0.65811429	        -17.67463604	          3.45907126	         10.19949473	          0.32420882	          0.89233468	          0.33900486	         32.57098403	         -9.68994645	        -16.26411609	       -112.78034544	        -13.73673021	        -31.50482086	         -8.76900753	         29.76530140	          6.03421865	          0.47846402	        -50.00047253	         22.17653381	         -8.87464175	          6.54437355	        -27.75226172	         -8.16364919	         -2.32980945	        -31.51870609	         -9.92607362	        -16.65466116	         47.50707075	         77.13289529	        -26.97877085	         30.86035224	         -0.03439434	        -11.22943057	         -7.08622719	         70.68110106	         69.03610487	          4.68772743	         19.66437075	
